G04 #@! TF.GenerationSoftware,KiCad,Pcbnew,(5.1.12)-1*
G04 #@! TF.CreationDate,2021-12-09T12:53:28+01:00*
G04 #@! TF.ProjectId,Servo-PowerInjector,53657276-6f2d-4506-9f77-6572496e6a65,rev?*
G04 #@! TF.SameCoordinates,Original*
G04 #@! TF.FileFunction,Copper,L2,Bot*
G04 #@! TF.FilePolarity,Positive*
%FSLAX46Y46*%
G04 Gerber Fmt 4.6, Leading zero omitted, Abs format (unit mm)*
G04 Created by KiCad (PCBNEW (5.1.12)-1) date 2021-12-09 12:53:28*
%MOMM*%
%LPD*%
G01*
G04 APERTURE LIST*
G04 #@! TA.AperFunction,NonConductor*
%ADD10C,0.250000*%
G04 #@! TD*
G04 #@! TA.AperFunction,SMDPad,CuDef*
%ADD11C,4.000000*%
G04 #@! TD*
G04 #@! TA.AperFunction,ComponentPad*
%ADD12O,1.700000X1.700000*%
G04 #@! TD*
G04 #@! TA.AperFunction,ComponentPad*
%ADD13R,1.700000X1.700000*%
G04 #@! TD*
G04 #@! TA.AperFunction,ViaPad*
%ADD14C,0.800000*%
G04 #@! TD*
G04 #@! TA.AperFunction,Conductor*
%ADD15C,1.270000*%
G04 #@! TD*
G04 #@! TA.AperFunction,Conductor*
%ADD16C,0.500000*%
G04 #@! TD*
G04 #@! TA.AperFunction,Conductor*
%ADD17C,0.254000*%
G04 #@! TD*
G04 #@! TA.AperFunction,Conductor*
%ADD18C,0.100000*%
G04 #@! TD*
G04 APERTURE END LIST*
D10*
X138175952Y-106751428D02*
X137414047Y-106751428D01*
X154685952Y-106751428D02*
X153924047Y-106751428D01*
X138175952Y-98496428D02*
X137414047Y-98496428D01*
X137795000Y-98877380D02*
X137795000Y-98115476D01*
X154685952Y-98496428D02*
X153924047Y-98496428D01*
X154305000Y-98877380D02*
X154305000Y-98115476D01*
D11*
G04 #@! TO.P,TP4,1*
G04 #@! TO.N,GND*
X142240000Y-106680000D03*
G04 #@! TD*
G04 #@! TO.P,TP3,1*
G04 #@! TO.N,+BATT*
X142240000Y-99060000D03*
G04 #@! TD*
G04 #@! TO.P,TP2,1*
G04 #@! TO.N,GND*
X149860000Y-106680000D03*
G04 #@! TD*
G04 #@! TO.P,TP1,1*
G04 #@! TO.N,+BATT*
X149860000Y-99060000D03*
G04 #@! TD*
D12*
G04 #@! TO.P,J4,6*
G04 #@! TO.N,GND*
X165100000Y-104140000D03*
G04 #@! TO.P,J4,5*
X162560000Y-104140000D03*
G04 #@! TO.P,J4,4*
G04 #@! TO.N,Net-(J4-Pad4)*
X165100000Y-101600000D03*
G04 #@! TO.P,J4,3*
G04 #@! TO.N,+BATT*
X162560000Y-101600000D03*
G04 #@! TO.P,J4,2*
G04 #@! TO.N,Net-(J4-Pad1)*
X165100000Y-99060000D03*
D13*
G04 #@! TO.P,J4,1*
X162560000Y-99060000D03*
G04 #@! TD*
D12*
G04 #@! TO.P,J3,2*
G04 #@! TO.N,GND*
X157480000Y-104140000D03*
D13*
G04 #@! TO.P,J3,1*
G04 #@! TO.N,+BATT*
X157480000Y-101600000D03*
G04 #@! TD*
D12*
G04 #@! TO.P,J2,2*
G04 #@! TO.N,GND*
X134620000Y-104140000D03*
D13*
G04 #@! TO.P,J2,1*
G04 #@! TO.N,+BATT*
X134620000Y-101600000D03*
G04 #@! TD*
D12*
G04 #@! TO.P,J1,6*
G04 #@! TO.N,Net-(J1-Pad5)*
X127000000Y-99060000D03*
G04 #@! TO.P,J1,5*
X129540000Y-99060000D03*
G04 #@! TO.P,J1,4*
G04 #@! TO.N,Net-(J1-Pad4)*
X127000000Y-101600000D03*
G04 #@! TO.P,J1,3*
G04 #@! TO.N,+BATT*
X129540000Y-101600000D03*
G04 #@! TO.P,J1,2*
G04 #@! TO.N,GND*
X127000000Y-104140000D03*
D13*
G04 #@! TO.P,J1,1*
X129540000Y-104140000D03*
G04 #@! TD*
D14*
G04 #@! TO.N,*
X146050000Y-95885000D03*
X146050000Y-102235000D03*
X146050000Y-103505000D03*
X146050000Y-109855000D03*
G04 #@! TO.N,GND*
X146050000Y-104775000D03*
X146050000Y-106045000D03*
X146050000Y-107315000D03*
X146050000Y-108585000D03*
G04 #@! TO.N,+BATT*
X146050000Y-97155000D03*
X146050000Y-98425000D03*
X146050000Y-99695000D03*
X146050000Y-100965000D03*
G04 #@! TD*
D15*
G04 #@! TO.N,+BATT*
X162560000Y-101600000D02*
X160655000Y-101600000D01*
X129540000Y-101600000D02*
X132080000Y-101600000D01*
D16*
G04 #@! TO.N,Net-(J4-Pad1)*
X162560000Y-99060000D02*
X165100000Y-99060000D01*
G04 #@! TO.N,Net-(J1-Pad5)*
X127000000Y-99060000D02*
X129540000Y-99060000D01*
G04 #@! TD*
D17*
G04 #@! TO.N,GND*
X125594632Y-103660245D02*
X125698300Y-103886000D01*
X126746000Y-103886000D01*
X126746000Y-103866000D01*
X127254000Y-103866000D01*
X127254000Y-103886000D01*
X129286000Y-103886000D01*
X129286000Y-103866000D01*
X129794000Y-103866000D01*
X129794000Y-103886000D01*
X130866250Y-103886000D01*
X131025000Y-103727250D01*
X131025669Y-103632000D01*
X133227478Y-103632000D01*
X133214622Y-103660244D01*
X133315624Y-103886000D01*
X134366000Y-103886000D01*
X134366000Y-103866000D01*
X134874000Y-103866000D01*
X134874000Y-103886000D01*
X135924376Y-103886000D01*
X136025378Y-103660244D01*
X136012522Y-103632000D01*
X145019985Y-103632000D01*
X145054774Y-103806898D01*
X145132795Y-103995256D01*
X145246063Y-104164774D01*
X145390226Y-104308937D01*
X145559744Y-104422205D01*
X145748102Y-104500226D01*
X145948061Y-104540000D01*
X146151939Y-104540000D01*
X146351898Y-104500226D01*
X146540256Y-104422205D01*
X146709774Y-104308937D01*
X146853937Y-104164774D01*
X146967205Y-103995256D01*
X147045226Y-103806898D01*
X147080015Y-103632000D01*
X156087478Y-103632000D01*
X156074622Y-103660244D01*
X156175624Y-103886000D01*
X157226000Y-103886000D01*
X157226000Y-103866000D01*
X157734000Y-103866000D01*
X157734000Y-103886000D01*
X158784376Y-103886000D01*
X158885378Y-103660244D01*
X158872522Y-103632000D01*
X161166330Y-103632000D01*
X161154632Y-103660245D01*
X161258300Y-103886000D01*
X162306000Y-103886000D01*
X162306000Y-103866000D01*
X162814000Y-103866000D01*
X162814000Y-103886000D01*
X164846000Y-103886000D01*
X164846000Y-103866000D01*
X165354000Y-103866000D01*
X165354000Y-103886000D01*
X166401700Y-103886000D01*
X166505368Y-103660245D01*
X166493670Y-103632000D01*
X168885000Y-103632000D01*
X168885000Y-109830000D01*
X147085000Y-109830000D01*
X147085000Y-109753061D01*
X147045226Y-109553102D01*
X146967205Y-109364744D01*
X146853937Y-109195226D01*
X146709774Y-109051063D01*
X146540256Y-108937795D01*
X146351898Y-108859774D01*
X146151939Y-108820000D01*
X145948061Y-108820000D01*
X145748102Y-108859774D01*
X145559744Y-108937795D01*
X145390226Y-109051063D01*
X145246063Y-109195226D01*
X145132795Y-109364744D01*
X145054774Y-109553102D01*
X145015000Y-109753061D01*
X145015000Y-109830000D01*
X123215000Y-109830000D01*
X123215000Y-108610406D01*
X140668804Y-108610406D01*
X140896359Y-108961493D01*
X141367275Y-109179787D01*
X141871727Y-109302014D01*
X142390334Y-109323479D01*
X142903162Y-109243356D01*
X143390506Y-109064725D01*
X143583641Y-108961493D01*
X143811196Y-108610406D01*
X148288804Y-108610406D01*
X148516359Y-108961493D01*
X148987275Y-109179787D01*
X149491727Y-109302014D01*
X150010334Y-109323479D01*
X150523162Y-109243356D01*
X151010506Y-109064725D01*
X151203641Y-108961493D01*
X151431196Y-108610406D01*
X149860000Y-107039210D01*
X148288804Y-108610406D01*
X143811196Y-108610406D01*
X142240000Y-107039210D01*
X140668804Y-108610406D01*
X123215000Y-108610406D01*
X123215000Y-104619755D01*
X125594632Y-104619755D01*
X125667010Y-104794514D01*
X125820312Y-105041991D01*
X126018949Y-105254805D01*
X126255287Y-105424778D01*
X126520244Y-105545378D01*
X126746000Y-105444376D01*
X126746000Y-104394000D01*
X127254000Y-104394000D01*
X127254000Y-105444376D01*
X127479756Y-105545378D01*
X127744713Y-105424778D01*
X127981051Y-105254805D01*
X128075922Y-105153163D01*
X128100498Y-105234180D01*
X128159463Y-105344494D01*
X128238815Y-105441185D01*
X128335506Y-105520537D01*
X128445820Y-105579502D01*
X128565518Y-105615812D01*
X128690000Y-105628072D01*
X129127250Y-105625000D01*
X129286000Y-105466250D01*
X129286000Y-104394000D01*
X129794000Y-104394000D01*
X129794000Y-105466250D01*
X129952750Y-105625000D01*
X130390000Y-105628072D01*
X130514482Y-105615812D01*
X130634180Y-105579502D01*
X130744494Y-105520537D01*
X130841185Y-105441185D01*
X130920537Y-105344494D01*
X130979502Y-105234180D01*
X131015812Y-105114482D01*
X131028072Y-104990000D01*
X131025471Y-104619756D01*
X133214622Y-104619756D01*
X133335222Y-104884713D01*
X133505195Y-105121051D01*
X133718009Y-105319688D01*
X133965486Y-105472990D01*
X134140245Y-105545368D01*
X134366000Y-105441700D01*
X134366000Y-104394000D01*
X134874000Y-104394000D01*
X134874000Y-105441700D01*
X135099755Y-105545368D01*
X135274514Y-105472990D01*
X135521991Y-105319688D01*
X135583260Y-105262500D01*
X136415953Y-105262500D01*
X136415953Y-108282500D01*
X139174048Y-108282500D01*
X139174048Y-106830334D01*
X139596521Y-106830334D01*
X139676644Y-107343162D01*
X139855275Y-107830506D01*
X139958507Y-108023641D01*
X140309594Y-108251196D01*
X141880790Y-106680000D01*
X142599210Y-106680000D01*
X144170406Y-108251196D01*
X144521493Y-108023641D01*
X144739787Y-107552725D01*
X144862014Y-107048273D01*
X144871034Y-106830334D01*
X147216521Y-106830334D01*
X147296644Y-107343162D01*
X147475275Y-107830506D01*
X147578507Y-108023641D01*
X147929594Y-108251196D01*
X149500790Y-106680000D01*
X150219210Y-106680000D01*
X151790406Y-108251196D01*
X152141493Y-108023641D01*
X152359787Y-107552725D01*
X152482014Y-107048273D01*
X152503479Y-106529666D01*
X152423356Y-106016838D01*
X152244725Y-105529494D01*
X152141493Y-105336359D01*
X152027539Y-105262500D01*
X152925953Y-105262500D01*
X152925953Y-108282500D01*
X155684048Y-108282500D01*
X155684048Y-105262500D01*
X152925953Y-105262500D01*
X152027539Y-105262500D01*
X151790406Y-105108804D01*
X150219210Y-106680000D01*
X149500790Y-106680000D01*
X147929594Y-105108804D01*
X147578507Y-105336359D01*
X147360213Y-105807275D01*
X147237986Y-106311727D01*
X147216521Y-106830334D01*
X144871034Y-106830334D01*
X144883479Y-106529666D01*
X144803356Y-106016838D01*
X144624725Y-105529494D01*
X144521493Y-105336359D01*
X144170406Y-105108804D01*
X142599210Y-106680000D01*
X141880790Y-106680000D01*
X140309594Y-105108804D01*
X139958507Y-105336359D01*
X139740213Y-105807275D01*
X139617986Y-106311727D01*
X139596521Y-106830334D01*
X139174048Y-106830334D01*
X139174048Y-105262500D01*
X136415953Y-105262500D01*
X135583260Y-105262500D01*
X135734805Y-105121051D01*
X135904778Y-104884713D01*
X135966279Y-104749594D01*
X140668804Y-104749594D01*
X142240000Y-106320790D01*
X143811196Y-104749594D01*
X148288804Y-104749594D01*
X149860000Y-106320790D01*
X151431196Y-104749594D01*
X151347043Y-104619756D01*
X156074622Y-104619756D01*
X156195222Y-104884713D01*
X156365195Y-105121051D01*
X156578009Y-105319688D01*
X156825486Y-105472990D01*
X157000245Y-105545368D01*
X157226000Y-105441700D01*
X157226000Y-104394000D01*
X157734000Y-104394000D01*
X157734000Y-105441700D01*
X157959755Y-105545368D01*
X158134514Y-105472990D01*
X158381991Y-105319688D01*
X158594805Y-105121051D01*
X158764778Y-104884713D01*
X158885378Y-104619756D01*
X158885378Y-104619755D01*
X161154632Y-104619755D01*
X161227010Y-104794514D01*
X161380312Y-105041991D01*
X161578949Y-105254805D01*
X161815287Y-105424778D01*
X162080244Y-105545378D01*
X162306000Y-105444376D01*
X162306000Y-104394000D01*
X162814000Y-104394000D01*
X162814000Y-105444376D01*
X163039756Y-105545378D01*
X163304713Y-105424778D01*
X163541051Y-105254805D01*
X163739688Y-105041991D01*
X163830000Y-104896199D01*
X163920312Y-105041991D01*
X164118949Y-105254805D01*
X164355287Y-105424778D01*
X164620244Y-105545378D01*
X164846000Y-105444376D01*
X164846000Y-104394000D01*
X165354000Y-104394000D01*
X165354000Y-105444376D01*
X165579756Y-105545378D01*
X165844713Y-105424778D01*
X166081051Y-105254805D01*
X166279688Y-105041991D01*
X166432990Y-104794514D01*
X166505368Y-104619755D01*
X166401700Y-104394000D01*
X165354000Y-104394000D01*
X164846000Y-104394000D01*
X162814000Y-104394000D01*
X162306000Y-104394000D01*
X161258300Y-104394000D01*
X161154632Y-104619755D01*
X158885378Y-104619755D01*
X158784376Y-104394000D01*
X157734000Y-104394000D01*
X157226000Y-104394000D01*
X156175624Y-104394000D01*
X156074622Y-104619756D01*
X151347043Y-104619756D01*
X151203641Y-104398507D01*
X150732725Y-104180213D01*
X150228273Y-104057986D01*
X149709666Y-104036521D01*
X149196838Y-104116644D01*
X148709494Y-104295275D01*
X148516359Y-104398507D01*
X148288804Y-104749594D01*
X143811196Y-104749594D01*
X143583641Y-104398507D01*
X143112725Y-104180213D01*
X142608273Y-104057986D01*
X142089666Y-104036521D01*
X141576838Y-104116644D01*
X141089494Y-104295275D01*
X140896359Y-104398507D01*
X140668804Y-104749594D01*
X135966279Y-104749594D01*
X136025378Y-104619756D01*
X135924376Y-104394000D01*
X134874000Y-104394000D01*
X134366000Y-104394000D01*
X133315624Y-104394000D01*
X133214622Y-104619756D01*
X131025471Y-104619756D01*
X131025000Y-104552750D01*
X130866250Y-104394000D01*
X129794000Y-104394000D01*
X129286000Y-104394000D01*
X127254000Y-104394000D01*
X126746000Y-104394000D01*
X125698300Y-104394000D01*
X125594632Y-104619755D01*
X123215000Y-104619755D01*
X123215000Y-103632000D01*
X125606330Y-103632000D01*
X125594632Y-103660245D01*
G04 #@! TA.AperFunction,Conductor*
D18*
G36*
X125594632Y-103660245D02*
G01*
X125698300Y-103886000D01*
X126746000Y-103886000D01*
X126746000Y-103866000D01*
X127254000Y-103866000D01*
X127254000Y-103886000D01*
X129286000Y-103886000D01*
X129286000Y-103866000D01*
X129794000Y-103866000D01*
X129794000Y-103886000D01*
X130866250Y-103886000D01*
X131025000Y-103727250D01*
X131025669Y-103632000D01*
X133227478Y-103632000D01*
X133214622Y-103660244D01*
X133315624Y-103886000D01*
X134366000Y-103886000D01*
X134366000Y-103866000D01*
X134874000Y-103866000D01*
X134874000Y-103886000D01*
X135924376Y-103886000D01*
X136025378Y-103660244D01*
X136012522Y-103632000D01*
X145019985Y-103632000D01*
X145054774Y-103806898D01*
X145132795Y-103995256D01*
X145246063Y-104164774D01*
X145390226Y-104308937D01*
X145559744Y-104422205D01*
X145748102Y-104500226D01*
X145948061Y-104540000D01*
X146151939Y-104540000D01*
X146351898Y-104500226D01*
X146540256Y-104422205D01*
X146709774Y-104308937D01*
X146853937Y-104164774D01*
X146967205Y-103995256D01*
X147045226Y-103806898D01*
X147080015Y-103632000D01*
X156087478Y-103632000D01*
X156074622Y-103660244D01*
X156175624Y-103886000D01*
X157226000Y-103886000D01*
X157226000Y-103866000D01*
X157734000Y-103866000D01*
X157734000Y-103886000D01*
X158784376Y-103886000D01*
X158885378Y-103660244D01*
X158872522Y-103632000D01*
X161166330Y-103632000D01*
X161154632Y-103660245D01*
X161258300Y-103886000D01*
X162306000Y-103886000D01*
X162306000Y-103866000D01*
X162814000Y-103866000D01*
X162814000Y-103886000D01*
X164846000Y-103886000D01*
X164846000Y-103866000D01*
X165354000Y-103866000D01*
X165354000Y-103886000D01*
X166401700Y-103886000D01*
X166505368Y-103660245D01*
X166493670Y-103632000D01*
X168885000Y-103632000D01*
X168885000Y-109830000D01*
X147085000Y-109830000D01*
X147085000Y-109753061D01*
X147045226Y-109553102D01*
X146967205Y-109364744D01*
X146853937Y-109195226D01*
X146709774Y-109051063D01*
X146540256Y-108937795D01*
X146351898Y-108859774D01*
X146151939Y-108820000D01*
X145948061Y-108820000D01*
X145748102Y-108859774D01*
X145559744Y-108937795D01*
X145390226Y-109051063D01*
X145246063Y-109195226D01*
X145132795Y-109364744D01*
X145054774Y-109553102D01*
X145015000Y-109753061D01*
X145015000Y-109830000D01*
X123215000Y-109830000D01*
X123215000Y-108610406D01*
X140668804Y-108610406D01*
X140896359Y-108961493D01*
X141367275Y-109179787D01*
X141871727Y-109302014D01*
X142390334Y-109323479D01*
X142903162Y-109243356D01*
X143390506Y-109064725D01*
X143583641Y-108961493D01*
X143811196Y-108610406D01*
X148288804Y-108610406D01*
X148516359Y-108961493D01*
X148987275Y-109179787D01*
X149491727Y-109302014D01*
X150010334Y-109323479D01*
X150523162Y-109243356D01*
X151010506Y-109064725D01*
X151203641Y-108961493D01*
X151431196Y-108610406D01*
X149860000Y-107039210D01*
X148288804Y-108610406D01*
X143811196Y-108610406D01*
X142240000Y-107039210D01*
X140668804Y-108610406D01*
X123215000Y-108610406D01*
X123215000Y-104619755D01*
X125594632Y-104619755D01*
X125667010Y-104794514D01*
X125820312Y-105041991D01*
X126018949Y-105254805D01*
X126255287Y-105424778D01*
X126520244Y-105545378D01*
X126746000Y-105444376D01*
X126746000Y-104394000D01*
X127254000Y-104394000D01*
X127254000Y-105444376D01*
X127479756Y-105545378D01*
X127744713Y-105424778D01*
X127981051Y-105254805D01*
X128075922Y-105153163D01*
X128100498Y-105234180D01*
X128159463Y-105344494D01*
X128238815Y-105441185D01*
X128335506Y-105520537D01*
X128445820Y-105579502D01*
X128565518Y-105615812D01*
X128690000Y-105628072D01*
X129127250Y-105625000D01*
X129286000Y-105466250D01*
X129286000Y-104394000D01*
X129794000Y-104394000D01*
X129794000Y-105466250D01*
X129952750Y-105625000D01*
X130390000Y-105628072D01*
X130514482Y-105615812D01*
X130634180Y-105579502D01*
X130744494Y-105520537D01*
X130841185Y-105441185D01*
X130920537Y-105344494D01*
X130979502Y-105234180D01*
X131015812Y-105114482D01*
X131028072Y-104990000D01*
X131025471Y-104619756D01*
X133214622Y-104619756D01*
X133335222Y-104884713D01*
X133505195Y-105121051D01*
X133718009Y-105319688D01*
X133965486Y-105472990D01*
X134140245Y-105545368D01*
X134366000Y-105441700D01*
X134366000Y-104394000D01*
X134874000Y-104394000D01*
X134874000Y-105441700D01*
X135099755Y-105545368D01*
X135274514Y-105472990D01*
X135521991Y-105319688D01*
X135583260Y-105262500D01*
X136415953Y-105262500D01*
X136415953Y-108282500D01*
X139174048Y-108282500D01*
X139174048Y-106830334D01*
X139596521Y-106830334D01*
X139676644Y-107343162D01*
X139855275Y-107830506D01*
X139958507Y-108023641D01*
X140309594Y-108251196D01*
X141880790Y-106680000D01*
X142599210Y-106680000D01*
X144170406Y-108251196D01*
X144521493Y-108023641D01*
X144739787Y-107552725D01*
X144862014Y-107048273D01*
X144871034Y-106830334D01*
X147216521Y-106830334D01*
X147296644Y-107343162D01*
X147475275Y-107830506D01*
X147578507Y-108023641D01*
X147929594Y-108251196D01*
X149500790Y-106680000D01*
X150219210Y-106680000D01*
X151790406Y-108251196D01*
X152141493Y-108023641D01*
X152359787Y-107552725D01*
X152482014Y-107048273D01*
X152503479Y-106529666D01*
X152423356Y-106016838D01*
X152244725Y-105529494D01*
X152141493Y-105336359D01*
X152027539Y-105262500D01*
X152925953Y-105262500D01*
X152925953Y-108282500D01*
X155684048Y-108282500D01*
X155684048Y-105262500D01*
X152925953Y-105262500D01*
X152027539Y-105262500D01*
X151790406Y-105108804D01*
X150219210Y-106680000D01*
X149500790Y-106680000D01*
X147929594Y-105108804D01*
X147578507Y-105336359D01*
X147360213Y-105807275D01*
X147237986Y-106311727D01*
X147216521Y-106830334D01*
X144871034Y-106830334D01*
X144883479Y-106529666D01*
X144803356Y-106016838D01*
X144624725Y-105529494D01*
X144521493Y-105336359D01*
X144170406Y-105108804D01*
X142599210Y-106680000D01*
X141880790Y-106680000D01*
X140309594Y-105108804D01*
X139958507Y-105336359D01*
X139740213Y-105807275D01*
X139617986Y-106311727D01*
X139596521Y-106830334D01*
X139174048Y-106830334D01*
X139174048Y-105262500D01*
X136415953Y-105262500D01*
X135583260Y-105262500D01*
X135734805Y-105121051D01*
X135904778Y-104884713D01*
X135966279Y-104749594D01*
X140668804Y-104749594D01*
X142240000Y-106320790D01*
X143811196Y-104749594D01*
X148288804Y-104749594D01*
X149860000Y-106320790D01*
X151431196Y-104749594D01*
X151347043Y-104619756D01*
X156074622Y-104619756D01*
X156195222Y-104884713D01*
X156365195Y-105121051D01*
X156578009Y-105319688D01*
X156825486Y-105472990D01*
X157000245Y-105545368D01*
X157226000Y-105441700D01*
X157226000Y-104394000D01*
X157734000Y-104394000D01*
X157734000Y-105441700D01*
X157959755Y-105545368D01*
X158134514Y-105472990D01*
X158381991Y-105319688D01*
X158594805Y-105121051D01*
X158764778Y-104884713D01*
X158885378Y-104619756D01*
X158885378Y-104619755D01*
X161154632Y-104619755D01*
X161227010Y-104794514D01*
X161380312Y-105041991D01*
X161578949Y-105254805D01*
X161815287Y-105424778D01*
X162080244Y-105545378D01*
X162306000Y-105444376D01*
X162306000Y-104394000D01*
X162814000Y-104394000D01*
X162814000Y-105444376D01*
X163039756Y-105545378D01*
X163304713Y-105424778D01*
X163541051Y-105254805D01*
X163739688Y-105041991D01*
X163830000Y-104896199D01*
X163920312Y-105041991D01*
X164118949Y-105254805D01*
X164355287Y-105424778D01*
X164620244Y-105545378D01*
X164846000Y-105444376D01*
X164846000Y-104394000D01*
X165354000Y-104394000D01*
X165354000Y-105444376D01*
X165579756Y-105545378D01*
X165844713Y-105424778D01*
X166081051Y-105254805D01*
X166279688Y-105041991D01*
X166432990Y-104794514D01*
X166505368Y-104619755D01*
X166401700Y-104394000D01*
X165354000Y-104394000D01*
X164846000Y-104394000D01*
X162814000Y-104394000D01*
X162306000Y-104394000D01*
X161258300Y-104394000D01*
X161154632Y-104619755D01*
X158885378Y-104619755D01*
X158784376Y-104394000D01*
X157734000Y-104394000D01*
X157226000Y-104394000D01*
X156175624Y-104394000D01*
X156074622Y-104619756D01*
X151347043Y-104619756D01*
X151203641Y-104398507D01*
X150732725Y-104180213D01*
X150228273Y-104057986D01*
X149709666Y-104036521D01*
X149196838Y-104116644D01*
X148709494Y-104295275D01*
X148516359Y-104398507D01*
X148288804Y-104749594D01*
X143811196Y-104749594D01*
X143583641Y-104398507D01*
X143112725Y-104180213D01*
X142608273Y-104057986D01*
X142089666Y-104036521D01*
X141576838Y-104116644D01*
X141089494Y-104295275D01*
X140896359Y-104398507D01*
X140668804Y-104749594D01*
X135966279Y-104749594D01*
X136025378Y-104619756D01*
X135924376Y-104394000D01*
X134874000Y-104394000D01*
X134366000Y-104394000D01*
X133315624Y-104394000D01*
X133214622Y-104619756D01*
X131025471Y-104619756D01*
X131025000Y-104552750D01*
X130866250Y-104394000D01*
X129794000Y-104394000D01*
X129286000Y-104394000D01*
X127254000Y-104394000D01*
X126746000Y-104394000D01*
X125698300Y-104394000D01*
X125594632Y-104619755D01*
X123215000Y-104619755D01*
X123215000Y-103632000D01*
X125606330Y-103632000D01*
X125594632Y-103660245D01*
G37*
G04 #@! TD.AperFunction*
G04 #@! TD*
D17*
G04 #@! TO.N,+BATT*
X145015000Y-95986939D02*
X145054774Y-96186898D01*
X145132795Y-96375256D01*
X145246063Y-96544774D01*
X145390226Y-96688937D01*
X145559744Y-96802205D01*
X145748102Y-96880226D01*
X145948061Y-96920000D01*
X146151939Y-96920000D01*
X146351898Y-96880226D01*
X146540256Y-96802205D01*
X146709774Y-96688937D01*
X146853937Y-96544774D01*
X146967205Y-96375256D01*
X147045226Y-96186898D01*
X147085000Y-95986939D01*
X147085000Y-95910000D01*
X159496864Y-95910000D01*
X161163000Y-100353030D01*
X161163000Y-101100040D01*
X161154632Y-101120245D01*
X161163000Y-101138468D01*
X161163000Y-102061532D01*
X161154632Y-102079755D01*
X161163000Y-102099960D01*
X161163000Y-102108000D01*
X158965669Y-102108000D01*
X158965000Y-102012750D01*
X158806250Y-101854000D01*
X157734000Y-101854000D01*
X157734000Y-101874000D01*
X157226000Y-101874000D01*
X157226000Y-101854000D01*
X156153750Y-101854000D01*
X155995000Y-102012750D01*
X155994331Y-102108000D01*
X147080015Y-102108000D01*
X147045226Y-101933102D01*
X146967205Y-101744744D01*
X146853937Y-101575226D01*
X146709774Y-101431063D01*
X146540256Y-101317795D01*
X146351898Y-101239774D01*
X146151939Y-101200000D01*
X145948061Y-101200000D01*
X145748102Y-101239774D01*
X145559744Y-101317795D01*
X145390226Y-101431063D01*
X145246063Y-101575226D01*
X145132795Y-101744744D01*
X145054774Y-101933102D01*
X145019985Y-102108000D01*
X136105669Y-102108000D01*
X136105000Y-102012750D01*
X135946250Y-101854000D01*
X134874000Y-101854000D01*
X134874000Y-101874000D01*
X134366000Y-101874000D01*
X134366000Y-101854000D01*
X133293750Y-101854000D01*
X133135000Y-102012750D01*
X133134331Y-102108000D01*
X130937000Y-102108000D01*
X130937000Y-102099960D01*
X130945368Y-102079755D01*
X130937000Y-102061532D01*
X130937000Y-101138468D01*
X130945368Y-101120245D01*
X130937000Y-101100040D01*
X130937000Y-100750000D01*
X133131928Y-100750000D01*
X133135000Y-101187250D01*
X133293750Y-101346000D01*
X134366000Y-101346000D01*
X134366000Y-100273750D01*
X134874000Y-100273750D01*
X134874000Y-101346000D01*
X135946250Y-101346000D01*
X136105000Y-101187250D01*
X136106382Y-100990406D01*
X140668804Y-100990406D01*
X140896359Y-101341493D01*
X141367275Y-101559787D01*
X141871727Y-101682014D01*
X142390334Y-101703479D01*
X142903162Y-101623356D01*
X143390506Y-101444725D01*
X143583641Y-101341493D01*
X143811196Y-100990406D01*
X148288804Y-100990406D01*
X148516359Y-101341493D01*
X148987275Y-101559787D01*
X149491727Y-101682014D01*
X150010334Y-101703479D01*
X150523162Y-101623356D01*
X151010506Y-101444725D01*
X151203641Y-101341493D01*
X151431196Y-100990406D01*
X151190790Y-100750000D01*
X155991928Y-100750000D01*
X155995000Y-101187250D01*
X156153750Y-101346000D01*
X157226000Y-101346000D01*
X157226000Y-100273750D01*
X157734000Y-100273750D01*
X157734000Y-101346000D01*
X158806250Y-101346000D01*
X158965000Y-101187250D01*
X158968072Y-100750000D01*
X158955812Y-100625518D01*
X158919502Y-100505820D01*
X158860537Y-100395506D01*
X158781185Y-100298815D01*
X158684494Y-100219463D01*
X158574180Y-100160498D01*
X158454482Y-100124188D01*
X158330000Y-100111928D01*
X157892750Y-100115000D01*
X157734000Y-100273750D01*
X157226000Y-100273750D01*
X157067250Y-100115000D01*
X156630000Y-100111928D01*
X156505518Y-100124188D01*
X156385820Y-100160498D01*
X156275506Y-100219463D01*
X156178815Y-100298815D01*
X156099463Y-100395506D01*
X156040498Y-100505820D01*
X156004188Y-100625518D01*
X155991928Y-100750000D01*
X151190790Y-100750000D01*
X149860000Y-99419210D01*
X148288804Y-100990406D01*
X143811196Y-100990406D01*
X142240000Y-99419210D01*
X140668804Y-100990406D01*
X136106382Y-100990406D01*
X136108072Y-100750000D01*
X136095812Y-100625518D01*
X136059502Y-100505820D01*
X136000537Y-100395506D01*
X135921185Y-100298815D01*
X135824494Y-100219463D01*
X135714180Y-100160498D01*
X135594482Y-100124188D01*
X135470000Y-100111928D01*
X135032750Y-100115000D01*
X134874000Y-100273750D01*
X134366000Y-100273750D01*
X134207250Y-100115000D01*
X133770000Y-100111928D01*
X133645518Y-100124188D01*
X133525820Y-100160498D01*
X133415506Y-100219463D01*
X133318815Y-100298815D01*
X133239463Y-100395506D01*
X133180498Y-100505820D01*
X133144188Y-100625518D01*
X133131928Y-100750000D01*
X130937000Y-100750000D01*
X130937000Y-100353030D01*
X132191573Y-97007500D01*
X136415953Y-97007500D01*
X136415953Y-100027500D01*
X139174048Y-100027500D01*
X139174048Y-99210334D01*
X139596521Y-99210334D01*
X139676644Y-99723162D01*
X139855275Y-100210506D01*
X139958507Y-100403641D01*
X140309594Y-100631196D01*
X141880790Y-99060000D01*
X142599210Y-99060000D01*
X144170406Y-100631196D01*
X144521493Y-100403641D01*
X144739787Y-99932725D01*
X144862014Y-99428273D01*
X144871034Y-99210334D01*
X147216521Y-99210334D01*
X147296644Y-99723162D01*
X147475275Y-100210506D01*
X147578507Y-100403641D01*
X147929594Y-100631196D01*
X149500790Y-99060000D01*
X150219210Y-99060000D01*
X151790406Y-100631196D01*
X152141493Y-100403641D01*
X152359787Y-99932725D01*
X152482014Y-99428273D01*
X152503479Y-98909666D01*
X152423356Y-98396838D01*
X152244725Y-97909494D01*
X152141493Y-97716359D01*
X151790406Y-97488804D01*
X150219210Y-99060000D01*
X149500790Y-99060000D01*
X147929594Y-97488804D01*
X147578507Y-97716359D01*
X147360213Y-98187275D01*
X147237986Y-98691727D01*
X147216521Y-99210334D01*
X144871034Y-99210334D01*
X144883479Y-98909666D01*
X144803356Y-98396838D01*
X144624725Y-97909494D01*
X144521493Y-97716359D01*
X144170406Y-97488804D01*
X142599210Y-99060000D01*
X141880790Y-99060000D01*
X140309594Y-97488804D01*
X139958507Y-97716359D01*
X139740213Y-98187275D01*
X139617986Y-98691727D01*
X139596521Y-99210334D01*
X139174048Y-99210334D01*
X139174048Y-97129594D01*
X140668804Y-97129594D01*
X142240000Y-98700790D01*
X143811196Y-97129594D01*
X148288804Y-97129594D01*
X149860000Y-98700790D01*
X151431196Y-97129594D01*
X151352062Y-97007500D01*
X152925953Y-97007500D01*
X152925953Y-100027500D01*
X155684048Y-100027500D01*
X155684048Y-97007500D01*
X152925953Y-97007500D01*
X151352062Y-97007500D01*
X151203641Y-96778507D01*
X150732725Y-96560213D01*
X150228273Y-96437986D01*
X149709666Y-96416521D01*
X149196838Y-96496644D01*
X148709494Y-96675275D01*
X148516359Y-96778507D01*
X148288804Y-97129594D01*
X143811196Y-97129594D01*
X143583641Y-96778507D01*
X143112725Y-96560213D01*
X142608273Y-96437986D01*
X142089666Y-96416521D01*
X141576838Y-96496644D01*
X141089494Y-96675275D01*
X140896359Y-96778507D01*
X140668804Y-97129594D01*
X139174048Y-97129594D01*
X139174048Y-97007500D01*
X136415953Y-97007500D01*
X132191573Y-97007500D01*
X132603136Y-95910000D01*
X145015000Y-95910000D01*
X145015000Y-95986939D01*
G04 #@! TA.AperFunction,Conductor*
D18*
G36*
X145015000Y-95986939D02*
G01*
X145054774Y-96186898D01*
X145132795Y-96375256D01*
X145246063Y-96544774D01*
X145390226Y-96688937D01*
X145559744Y-96802205D01*
X145748102Y-96880226D01*
X145948061Y-96920000D01*
X146151939Y-96920000D01*
X146351898Y-96880226D01*
X146540256Y-96802205D01*
X146709774Y-96688937D01*
X146853937Y-96544774D01*
X146967205Y-96375256D01*
X147045226Y-96186898D01*
X147085000Y-95986939D01*
X147085000Y-95910000D01*
X159496864Y-95910000D01*
X161163000Y-100353030D01*
X161163000Y-101100040D01*
X161154632Y-101120245D01*
X161163000Y-101138468D01*
X161163000Y-102061532D01*
X161154632Y-102079755D01*
X161163000Y-102099960D01*
X161163000Y-102108000D01*
X158965669Y-102108000D01*
X158965000Y-102012750D01*
X158806250Y-101854000D01*
X157734000Y-101854000D01*
X157734000Y-101874000D01*
X157226000Y-101874000D01*
X157226000Y-101854000D01*
X156153750Y-101854000D01*
X155995000Y-102012750D01*
X155994331Y-102108000D01*
X147080015Y-102108000D01*
X147045226Y-101933102D01*
X146967205Y-101744744D01*
X146853937Y-101575226D01*
X146709774Y-101431063D01*
X146540256Y-101317795D01*
X146351898Y-101239774D01*
X146151939Y-101200000D01*
X145948061Y-101200000D01*
X145748102Y-101239774D01*
X145559744Y-101317795D01*
X145390226Y-101431063D01*
X145246063Y-101575226D01*
X145132795Y-101744744D01*
X145054774Y-101933102D01*
X145019985Y-102108000D01*
X136105669Y-102108000D01*
X136105000Y-102012750D01*
X135946250Y-101854000D01*
X134874000Y-101854000D01*
X134874000Y-101874000D01*
X134366000Y-101874000D01*
X134366000Y-101854000D01*
X133293750Y-101854000D01*
X133135000Y-102012750D01*
X133134331Y-102108000D01*
X130937000Y-102108000D01*
X130937000Y-102099960D01*
X130945368Y-102079755D01*
X130937000Y-102061532D01*
X130937000Y-101138468D01*
X130945368Y-101120245D01*
X130937000Y-101100040D01*
X130937000Y-100750000D01*
X133131928Y-100750000D01*
X133135000Y-101187250D01*
X133293750Y-101346000D01*
X134366000Y-101346000D01*
X134366000Y-100273750D01*
X134874000Y-100273750D01*
X134874000Y-101346000D01*
X135946250Y-101346000D01*
X136105000Y-101187250D01*
X136106382Y-100990406D01*
X140668804Y-100990406D01*
X140896359Y-101341493D01*
X141367275Y-101559787D01*
X141871727Y-101682014D01*
X142390334Y-101703479D01*
X142903162Y-101623356D01*
X143390506Y-101444725D01*
X143583641Y-101341493D01*
X143811196Y-100990406D01*
X148288804Y-100990406D01*
X148516359Y-101341493D01*
X148987275Y-101559787D01*
X149491727Y-101682014D01*
X150010334Y-101703479D01*
X150523162Y-101623356D01*
X151010506Y-101444725D01*
X151203641Y-101341493D01*
X151431196Y-100990406D01*
X151190790Y-100750000D01*
X155991928Y-100750000D01*
X155995000Y-101187250D01*
X156153750Y-101346000D01*
X157226000Y-101346000D01*
X157226000Y-100273750D01*
X157734000Y-100273750D01*
X157734000Y-101346000D01*
X158806250Y-101346000D01*
X158965000Y-101187250D01*
X158968072Y-100750000D01*
X158955812Y-100625518D01*
X158919502Y-100505820D01*
X158860537Y-100395506D01*
X158781185Y-100298815D01*
X158684494Y-100219463D01*
X158574180Y-100160498D01*
X158454482Y-100124188D01*
X158330000Y-100111928D01*
X157892750Y-100115000D01*
X157734000Y-100273750D01*
X157226000Y-100273750D01*
X157067250Y-100115000D01*
X156630000Y-100111928D01*
X156505518Y-100124188D01*
X156385820Y-100160498D01*
X156275506Y-100219463D01*
X156178815Y-100298815D01*
X156099463Y-100395506D01*
X156040498Y-100505820D01*
X156004188Y-100625518D01*
X155991928Y-100750000D01*
X151190790Y-100750000D01*
X149860000Y-99419210D01*
X148288804Y-100990406D01*
X143811196Y-100990406D01*
X142240000Y-99419210D01*
X140668804Y-100990406D01*
X136106382Y-100990406D01*
X136108072Y-100750000D01*
X136095812Y-100625518D01*
X136059502Y-100505820D01*
X136000537Y-100395506D01*
X135921185Y-100298815D01*
X135824494Y-100219463D01*
X135714180Y-100160498D01*
X135594482Y-100124188D01*
X135470000Y-100111928D01*
X135032750Y-100115000D01*
X134874000Y-100273750D01*
X134366000Y-100273750D01*
X134207250Y-100115000D01*
X133770000Y-100111928D01*
X133645518Y-100124188D01*
X133525820Y-100160498D01*
X133415506Y-100219463D01*
X133318815Y-100298815D01*
X133239463Y-100395506D01*
X133180498Y-100505820D01*
X133144188Y-100625518D01*
X133131928Y-100750000D01*
X130937000Y-100750000D01*
X130937000Y-100353030D01*
X132191573Y-97007500D01*
X136415953Y-97007500D01*
X136415953Y-100027500D01*
X139174048Y-100027500D01*
X139174048Y-99210334D01*
X139596521Y-99210334D01*
X139676644Y-99723162D01*
X139855275Y-100210506D01*
X139958507Y-100403641D01*
X140309594Y-100631196D01*
X141880790Y-99060000D01*
X142599210Y-99060000D01*
X144170406Y-100631196D01*
X144521493Y-100403641D01*
X144739787Y-99932725D01*
X144862014Y-99428273D01*
X144871034Y-99210334D01*
X147216521Y-99210334D01*
X147296644Y-99723162D01*
X147475275Y-100210506D01*
X147578507Y-100403641D01*
X147929594Y-100631196D01*
X149500790Y-99060000D01*
X150219210Y-99060000D01*
X151790406Y-100631196D01*
X152141493Y-100403641D01*
X152359787Y-99932725D01*
X152482014Y-99428273D01*
X152503479Y-98909666D01*
X152423356Y-98396838D01*
X152244725Y-97909494D01*
X152141493Y-97716359D01*
X151790406Y-97488804D01*
X150219210Y-99060000D01*
X149500790Y-99060000D01*
X147929594Y-97488804D01*
X147578507Y-97716359D01*
X147360213Y-98187275D01*
X147237986Y-98691727D01*
X147216521Y-99210334D01*
X144871034Y-99210334D01*
X144883479Y-98909666D01*
X144803356Y-98396838D01*
X144624725Y-97909494D01*
X144521493Y-97716359D01*
X144170406Y-97488804D01*
X142599210Y-99060000D01*
X141880790Y-99060000D01*
X140309594Y-97488804D01*
X139958507Y-97716359D01*
X139740213Y-98187275D01*
X139617986Y-98691727D01*
X139596521Y-99210334D01*
X139174048Y-99210334D01*
X139174048Y-97129594D01*
X140668804Y-97129594D01*
X142240000Y-98700790D01*
X143811196Y-97129594D01*
X148288804Y-97129594D01*
X149860000Y-98700790D01*
X151431196Y-97129594D01*
X151352062Y-97007500D01*
X152925953Y-97007500D01*
X152925953Y-100027500D01*
X155684048Y-100027500D01*
X155684048Y-97007500D01*
X152925953Y-97007500D01*
X151352062Y-97007500D01*
X151203641Y-96778507D01*
X150732725Y-96560213D01*
X150228273Y-96437986D01*
X149709666Y-96416521D01*
X149196838Y-96496644D01*
X148709494Y-96675275D01*
X148516359Y-96778507D01*
X148288804Y-97129594D01*
X143811196Y-97129594D01*
X143583641Y-96778507D01*
X143112725Y-96560213D01*
X142608273Y-96437986D01*
X142089666Y-96416521D01*
X141576838Y-96496644D01*
X141089494Y-96675275D01*
X140896359Y-96778507D01*
X140668804Y-97129594D01*
X139174048Y-97129594D01*
X139174048Y-97007500D01*
X136415953Y-97007500D01*
X132191573Y-97007500D01*
X132603136Y-95910000D01*
X145015000Y-95910000D01*
X145015000Y-95986939D01*
G37*
G04 #@! TD.AperFunction*
G04 #@! TD*
M02*
