M48
; DRILL file {KiCad (5.1.12)-1} date 12/09/21 12:52:44
; FORMAT={-:-/ absolute / inch / decimal}
; #@! TF.CreationDate,2021-12-09T12:52:44+01:00
; #@! TF.GenerationSoftware,Kicad,Pcbnew,(5.1.12)-1
; #@! TF.FileFunction,Plated,1,2,PTH
FMAT,2
INCH
T1C0.0157
T2C0.0394
%
G90
G05
T1
X5.75Y-3.775
X5.75Y-3.825
X5.75Y-3.875
X5.75Y-3.925
X5.75Y-3.975
X5.75Y-4.025
X5.75Y-4.075
X5.75Y-4.125
X5.75Y-4.175
X5.75Y-4.225
X5.75Y-4.275
X5.75Y-4.325
T2
X5.0Y-3.9
X5.0Y-4.0
X5.0Y-4.1
X5.1Y-3.9
X5.1Y-4.0
X5.1Y-4.1
X5.3Y-4.0
X5.3Y-4.1
X6.2Y-4.0
X6.2Y-4.1
X6.4Y-3.9
X6.4Y-4.0
X6.4Y-4.1
X6.5Y-3.9
X6.5Y-4.0
X6.5Y-4.1
T0
M30
